<?xml version="1.0" standalone="no"?>
<!DOCTYPE svg PUBLIC "-//W3C//DTD SVG 20010904//EN"
 "http://www.w3.org/TR/2001/REC-SVG-20010904/DTD/svg10.dtd">
<svg version="1.0" xmlns="http://www.w3.org/2000/svg"
 width="157.000000pt" height="131.000000pt" viewBox="0 0 157.000000 131.000000"
 preserveAspectRatio="xMidYMid meet">
<metadata>
Created by potrace 1.15, written by Peter Selinger 2001-2017
</metadata>
<g transform="translate(0.000000,131.000000) scale(0.100000,-0.100000)"
fill="#000000" stroke="none">
<path d="M1227 1254 c-20 -31 -42 -74 -47 -95 -6 -22 -12 -39 -14 -39 -2 0
-41 20 -87 44 -225 119 -487 139 -719 57 -151 -53 -283 -148 -316 -226 -26
-64 -44 -181 -44 -293 0 -319 97 -512 305 -611 44 -21 93 -41 109 -45 27 -7
28 -8 11 -26 -18 -20 -15 -20 228 -20 224 0 279 6 231 24 -22 9 -9 23 29 31
61 13 176 75 225 123 66 64 93 109 133 227 33 99 34 102 34 280 0 99 -3 196
-7 215 l-8 35 19 -25 c19 -24 20 -24 40 -6 33 30 36 55 10 82 -28 30 -20 40
18 21 66 -33 111 -28 172 21 l25 20 -85 42 c-76 39 -87 42 -121 33 -36 -10
-37 -10 -32 17 4 18 -5 51 -27 98 -18 40 -35 72 -38 72 -4 0 -23 -25 -44 -56z
m-116 -399 c117 -42 155 -158 113 -345 -20 -87 -70 -150 -121 -150 -36 0 -125
30 -173 58 -55 32 -155 45 -319 40 l-146 -5 -117 -48 c-82 -33 -124 -46 -141
-41 -73 18 -123 111 -134 245 -9 127 22 197 110 240 41 20 55 21 463 21 353 0
429 -2 465 -15z"/>
<path d="M203 749 c-21 -21 -2 -38 53 -49 52 -11 65 -22 44 -35 -12 -7 -13
-85 -2 -101 15 -22 58 -44 85 -44 18 0 39 11 59 30 27 27 30 36 25 70 -3 22
-2 40 3 40 12 0 19 25 11 38 -5 9 -209 56 -266 62 -1 0 -6 -5 -12 -11z"/>
<path d="M985 740 c-44 -10 -97 -21 -117 -24 -32 -6 -38 -11 -38 -31 0 -14 4
-25 8 -25 5 0 9 -21 9 -47 0 -38 4 -50 28 -71 24 -20 36 -23 69 -19 67 9 101
70 72 128 -9 18 -16 33 -16 35 0 1 25 8 55 14 59 12 68 19 59 44 -7 19 -26 19
-129 -4z"/>
</g>
</svg>
